<?xml version="1.0" encoding="utf-8"?>
<!-- Generator: Adobe Illustrator 19.2.0, SVG Export Plug-In . SVG Version: 6.00 Build 0)  -->
<svg version="1.1" xmlns="http://www.w3.org/2000/svg" xmlns:xlink="http://www.w3.org/1999/xlink" x="0px" y="0px"
	 viewBox="0 0 626.1 600" style="enable-background:new 0 0 626.1 600;" xml:space="preserve">
<style type="text/css">
	.st0{display:none;}
	.st1{fill:url(#SVGID_1_);}
	.st2{fill:url(#SVGID_2_);}
	.st3{fill:url(#SVGID_3_);}
	.st4{fill:url(#SVGID_4_);}
	.st5{fill:url(#SVGID_5_);}
	.st6{fill:url(#SVGID_6_);}
	.st7{fill:url(#SVGID_7_);}
	.st8{fill:url(#SVGID_8_);}
	.st9{fill:url(#SVGID_9_);}
	.st10{fill:url(#SVGID_10_);}
	.st11{fill:url(#SVGID_11_);}
	.st12{fill:url(#SVGID_12_);}
	.st13{fill:url(#SVGID_13_);}
	.st14{fill:url(#SVGID_14_);}
	.st15{fill:url(#SVGID_15_);}
	.st16{fill:url(#SVGID_16_);}
	.st17{fill:url(#SVGID_17_);}
	.st18{fill:url(#SVGID_18_);}
	.st19{fill:url(#SVGID_19_);}
	.st20{fill:url(#SVGID_20_);}
	.st21{fill:url(#SVGID_21_);}
	.st22{fill:url(#SVGID_22_);}
	.st23{fill:url(#SVGID_23_);}
	.st24{fill:url(#SVGID_24_);}
	.st25{fill:url(#SVGID_25_);}
	.st26{fill:url(#SVGID_26_);}
	.st27{fill:url(#SVGID_27_);}
	.st28{fill:url(#SVGID_28_);}
	.st29{fill:url(#SVGID_29_);}
	.st30{fill:url(#SVGID_30_);}
	.st31{fill:url(#SVGID_31_);}
	.st32{fill:url(#SVGID_32_);}
	.st33{fill:url(#SVGID_33_);}
	.st34{fill:url(#SVGID_34_);}
	.st35{fill:url(#SVGID_35_);}
	.st36{fill:url(#SVGID_36_);}
	.st37{fill:url(#SVGID_37_);}
	.st38{fill:url(#SVGID_38_);}
	.st39{fill:url(#SVGID_39_);}
	.st40{fill:url(#SVGID_40_);}
	.st41{fill:url(#SVGID_41_);}
	.st42{fill:url(#SVGID_42_);}
	.st43{fill:url(#SVGID_43_);}
	.st44{fill:url(#SVGID_44_);}
	.st45{fill:url(#SVGID_45_);}
	.st46{fill:url(#SVGID_46_);}
	.st47{fill:url(#SVGID_47_);}
	.st48{fill:url(#SVGID_48_);}
	.st49{fill:url(#SVGID_49_);}
	.st50{fill:url(#SVGID_50_);}
	.st51{fill:url(#SVGID_51_);}
	.st52{fill:url(#SVGID_52_);}
	.st53{fill:url(#SVGID_53_);}
	.st54{fill:url(#SVGID_54_);}
	.st55{fill:url(#SVGID_55_);}
	.st56{fill:url(#SVGID_56_);}
</style>
<g id="Layer_2" class="st0">
	
		<image style="display:inline;overflow:visible;" width="1920" height="1280" xlink:href="background.png"  transform="matrix(0.4167 0 0 0.4798 -28.6748 -2.0954)">
	</image>
</g>
<g id="Layer_3">
</g>
<g id="logo">
	<g>
		<linearGradient id="SVGID_1_" gradientUnits="userSpaceOnUse" x1="357.3776" y1="282.6558" x2="391.8653" y2="282.6558">
			<stop  offset="0" style="stop-color:#333EDD"/>
			<stop  offset="0.1675" style="stop-color:#0C0D5E"/>
			<stop  offset="0.3892" style="stop-color:#3E35BC"/>
			<stop  offset="0.601" style="stop-color:#07074E"/>
			<stop  offset="0.8227" style="stop-color:#5B38A2"/>
			<stop  offset="0.9458" style="stop-color:#333EDD"/>
		</linearGradient>
		<path class="st1" d="M357.6,223.7c1.4,0.4,10.1,27,19.5,59.6c9.4,32.6,16,58.7,14.6,58.3c-1.4-0.4-10.1-27-19.5-59.6
			C362.7,249.4,356.2,223.3,357.6,223.7z"/>
		<linearGradient id="SVGID_2_" gradientUnits="userSpaceOnUse" x1="310.942" y1="346.031" x2="349.8212" y2="346.031">
			<stop  offset="0" style="stop-color:#333EDD"/>
			<stop  offset="0.1675" style="stop-color:#0C0D5E"/>
			<stop  offset="0.3892" style="stop-color:#3E35BC"/>
			<stop  offset="0.601" style="stop-color:#07074E"/>
			<stop  offset="0.8227" style="stop-color:#5B38A2"/>
			<stop  offset="0.9458" style="stop-color:#333EDD"/>
		</linearGradient>
		<path class="st2" d="M333.2,347.1c-10.6,6.1-20.5,10.6-22.1,10c-1.6-0.6,5.7-6.1,16.4-12.2c10.6-6.1,20.5-10.6,22.1-10
			C351.2,335.5,343.9,341,333.2,347.1z"/>
		<linearGradient id="SVGID_3_" gradientUnits="userSpaceOnUse" x1="251.3712" y1="317.3442" x2="273.716" y2="317.3442">
			<stop  offset="0" style="stop-color:#333EDD"/>
			<stop  offset="0.1675" style="stop-color:#0C0D5E"/>
			<stop  offset="0.3892" style="stop-color:#3E35BC"/>
			<stop  offset="0.601" style="stop-color:#07074E"/>
			<stop  offset="0.8227" style="stop-color:#5B38A2"/>
			<stop  offset="0.9458" style="stop-color:#333EDD"/>
		</linearGradient>
		<path class="st3" d="M273.7,336.6c-0.6,1.6-6.1-5.7-12.2-16.4c-6.1-10.6-10.6-20.5-10-22.1c0.6-1.6,6.1,5.7,12.2,16.4
			C269.8,325.1,274.3,335,273.7,336.6z"/>
		<linearGradient id="SVGID_4_" gradientUnits="userSpaceOnUse" x1="276.2535" y1="253.9691" x2="315.1328" y2="253.9691">
			<stop  offset="0" style="stop-color:#333EDD"/>
			<stop  offset="0.1675" style="stop-color:#0C0D5E"/>
			<stop  offset="0.3892" style="stop-color:#3E35BC"/>
			<stop  offset="0.601" style="stop-color:#07074E"/>
			<stop  offset="0.8227" style="stop-color:#5B38A2"/>
			<stop  offset="0.9458" style="stop-color:#333EDD"/>
		</linearGradient>
		<path class="st4" d="M292.8,252.9c10.6-6.1,20.5-10.6,22.1-10c1.6,0.6-5.7,6.1-16.4,12.2c-10.6,6.1-20.5,10.6-22.1,10
			C274.9,264.5,282.2,259,292.8,252.9z"/>
		<linearGradient id="SVGID_5_" gradientUnits="userSpaceOnUse" x1="329.9808" y1="292.9637" x2="339.328" y2="292.9637">
			<stop  offset="0" style="stop-color:#333EDD"/>
			<stop  offset="0.1675" style="stop-color:#0C0D5E"/>
			<stop  offset="0.3892" style="stop-color:#3E35BC"/>
			<stop  offset="0.601" style="stop-color:#07074E"/>
			<stop  offset="0.8227" style="stop-color:#5B38A2"/>
			<stop  offset="0.9458" style="stop-color:#333EDD"/>
		</linearGradient>
		<path class="st5" d="M335.1,291.8c2.6,4.4,4.4,8.6,4.2,9.2c-0.3,0.7-2.5-2.4-5.1-6.8c-2.6-4.4-4.4-8.6-4.2-9.2
			C330.3,284.3,332.5,287.3,335.1,291.8z"/>
		<linearGradient id="SVGID_6_" gradientUnits="userSpaceOnUse" x1="332.0803" y1="292.9637" x2="346.5072" y2="292.9637">
			<stop  offset="0" style="stop-color:#333EDD"/>
			<stop  offset="0.1675" style="stop-color:#0C0D5E"/>
			<stop  offset="0.3892" style="stop-color:#3E35BC"/>
			<stop  offset="0.601" style="stop-color:#07074E"/>
			<stop  offset="0.8227" style="stop-color:#5B38A2"/>
			<stop  offset="0.9458" style="stop-color:#333EDD"/>
		</linearGradient>
		<path class="st6" d="M332.2,268.3c0.6,0.2,4.2,11.3,8.2,24.9c3.9,13.6,6.7,24.5,6.1,24.4c-0.6-0.2-4.2-11.3-8.2-24.9
			C334.3,279.1,331.6,268.2,332.2,268.3z"/>
		<linearGradient id="SVGID_7_" gradientUnits="userSpaceOnUse" x1="320.0636" y1="297.1851" x2="323.6028" y2="297.1851">
			<stop  offset="0" style="stop-color:#333EDD"/>
			<stop  offset="0.1675" style="stop-color:#0C0D5E"/>
			<stop  offset="0.3892" style="stop-color:#3E35BC"/>
			<stop  offset="0.601" style="stop-color:#07074E"/>
			<stop  offset="0.8227" style="stop-color:#5B38A2"/>
			<stop  offset="0.9458" style="stop-color:#333EDD"/>
		</linearGradient>
		<path class="st7" d="M322,296.7c1,1.7,1.7,3.2,1.6,3.5c-0.1,0.3-1-0.9-1.9-2.6c-1-1.7-1.7-3.2-1.6-3.5
			C320.2,293.9,321,295,322,296.7z"/>
		<linearGradient id="SVGID_8_" gradientUnits="userSpaceOnUse" x1="320.8585" y1="297.1851" x2="326.321" y2="297.1851">
			<stop  offset="0" style="stop-color:#333EDD"/>
			<stop  offset="0.1675" style="stop-color:#0C0D5E"/>
			<stop  offset="0.3892" style="stop-color:#3E35BC"/>
			<stop  offset="0.601" style="stop-color:#07074E"/>
			<stop  offset="0.8227" style="stop-color:#5B38A2"/>
			<stop  offset="0.9458" style="stop-color:#333EDD"/>
		</linearGradient>
		<path class="st8" d="M320.9,287.8c0.2,0.1,1.6,4.3,3.1,9.4c1.5,5.2,2.5,9.3,2.3,9.2c-0.2-0.1-1.6-4.3-3.1-9.4
			C321.7,291.9,320.7,287.8,320.9,287.8z"/>
		<linearGradient id="SVGID_9_" gradientUnits="userSpaceOnUse" x1="301.7506" y1="290.8848" x2="320.4259" y2="290.8848">
			<stop  offset="0" style="stop-color:#333EDD"/>
			<stop  offset="0.1675" style="stop-color:#0C0D5E"/>
			<stop  offset="0.3892" style="stop-color:#3E35BC"/>
			<stop  offset="0.601" style="stop-color:#07074E"/>
			<stop  offset="0.8227" style="stop-color:#5B38A2"/>
			<stop  offset="0.9458" style="stop-color:#333EDD"/>
		</linearGradient>
		<path class="st9" d="M311,291.3c-5.2,1.5-9.3,2.5-9.2,2.3c0.1-0.2,4.3-1.6,9.4-3.1c5.2-1.5,9.3-2.5,9.2-2.3
			C320.4,288.4,316.1,289.8,311,291.3z"/>
		<linearGradient id="SVGID_10_" gradientUnits="userSpaceOnUse" x1="313.5036" y1="307.2232" x2="319.6616" y2="307.2232">
			<stop  offset="0" style="stop-color:#333EDD"/>
			<stop  offset="0.1675" style="stop-color:#0C0D5E"/>
			<stop  offset="0.3892" style="stop-color:#3E35BC"/>
			<stop  offset="0.601" style="stop-color:#07074E"/>
			<stop  offset="0.8227" style="stop-color:#5B38A2"/>
			<stop  offset="0.9458" style="stop-color:#333EDD"/>
		</linearGradient>
		<path class="st10" d="M316.1,307.1c1.7-1,3.2-1.7,3.5-1.6c0.3,0.1-0.9,1-2.6,1.9s-3.2,1.7-3.5,1.6
			C313.3,308.9,314.4,308,316.1,307.1z"/>
		<linearGradient id="SVGID_11_" gradientUnits="userSpaceOnUse" x1="308.0092" y1="292.6414" x2="314.1673" y2="292.6414">
			<stop  offset="0" style="stop-color:#333EDD"/>
			<stop  offset="0.1675" style="stop-color:#0C0D5E"/>
			<stop  offset="0.3892" style="stop-color:#3E35BC"/>
			<stop  offset="0.601" style="stop-color:#07074E"/>
			<stop  offset="0.8227" style="stop-color:#5B38A2"/>
			<stop  offset="0.9458" style="stop-color:#333EDD"/>
		</linearGradient>
		<path class="st11" d="M311.5,292.8c-1.7,1-3.2,1.7-3.5,1.6c-0.3-0.1,0.9-1,2.6-1.9c1.7-1,3.2-1.7,3.5-1.6
			C314.4,291,313.2,291.8,311.5,292.8z"/>
		<linearGradient id="SVGID_12_" gradientUnits="userSpaceOnUse" x1="298.1444" y1="280.9635" x2="314.4084" y2="280.9635">
			<stop  offset="0" style="stop-color:#333EDD"/>
			<stop  offset="0.1675" style="stop-color:#0C0D5E"/>
			<stop  offset="0.3892" style="stop-color:#3E35BC"/>
			<stop  offset="0.601" style="stop-color:#07074E"/>
			<stop  offset="0.8227" style="stop-color:#5B38A2"/>
			<stop  offset="0.9458" style="stop-color:#333EDD"/>
		</linearGradient>
		<path class="st12" d="M307.5,281.4c-4.4,2.6-8.6,4.4-9.2,4.2c-0.7-0.3,2.4-2.5,6.8-5.1c4.4-2.6,8.6-4.4,9.2-4.2
			C315,276.6,311.9,278.8,307.5,281.4z"/>
		<linearGradient id="SVGID_13_" gradientUnits="userSpaceOnUse" x1="301.3498" y1="302.6794" x2="306.8124" y2="302.6794">
			<stop  offset="0" style="stop-color:#333EDD"/>
			<stop  offset="0.1675" style="stop-color:#0C0D5E"/>
			<stop  offset="0.3892" style="stop-color:#3E35BC"/>
			<stop  offset="0.601" style="stop-color:#07074E"/>
			<stop  offset="0.8227" style="stop-color:#5B38A2"/>
			<stop  offset="0.9458" style="stop-color:#333EDD"/>
		</linearGradient>
		<path class="st13" d="M303.7,302.6c-1.5-5.2-2.5-9.3-2.3-9.2c0.2,0.1,1.6,4.3,3.1,9.4c1.5,5.2,2.5,9.3,2.3,9.2
			C306.6,312,305.2,307.7,303.7,302.6z"/>
		<linearGradient id="SVGID_14_" gradientUnits="userSpaceOnUse" x1="304.0681" y1="302.6794" x2="307.6073" y2="302.6794">
			<stop  offset="0" style="stop-color:#333EDD"/>
			<stop  offset="0.1675" style="stop-color:#0C0D5E"/>
			<stop  offset="0.3892" style="stop-color:#3E35BC"/>
			<stop  offset="0.601" style="stop-color:#07074E"/>
			<stop  offset="0.8227" style="stop-color:#5B38A2"/>
			<stop  offset="0.9458" style="stop-color:#333EDD"/>
		</linearGradient>
		<path class="st14" d="M305.7,303.1c-1-1.7-1.7-3.2-1.6-3.5c0.1-0.3,1,0.9,1.9,2.6c1,1.7,1.7,3.2,1.6,3.5
			C307.5,306,306.6,304.8,305.7,303.1z"/>
		<linearGradient id="SVGID_15_" gradientUnits="userSpaceOnUse" x1="307.245" y1="308.9798" x2="325.9202" y2="308.9798">
			<stop  offset="0" style="stop-color:#333EDD"/>
			<stop  offset="0.1675" style="stop-color:#0C0D5E"/>
			<stop  offset="0.3892" style="stop-color:#3E35BC"/>
			<stop  offset="0.601" style="stop-color:#07074E"/>
			<stop  offset="0.8227" style="stop-color:#5B38A2"/>
			<stop  offset="0.9458" style="stop-color:#333EDD"/>
		</linearGradient>
		<path class="st15" d="M316.7,308.6c5.2-1.5,9.3-2.5,9.2-2.3c-0.1,0.2-4.3,1.6-9.4,3.1c-5.2,1.5-9.3,2.5-9.2,2.3
			C307.3,311.5,311.5,310.1,316.7,308.6z"/>
		<linearGradient id="SVGID_16_" gradientUnits="userSpaceOnUse" x1="312.6553" y1="319.4749" x2="328.9193" y2="319.4749">
			<stop  offset="0" style="stop-color:#333EDD"/>
			<stop  offset="0.1675" style="stop-color:#0C0D5E"/>
			<stop  offset="0.3892" style="stop-color:#3E35BC"/>
			<stop  offset="0.601" style="stop-color:#07074E"/>
			<stop  offset="0.8227" style="stop-color:#5B38A2"/>
			<stop  offset="0.9458" style="stop-color:#333EDD"/>
		</linearGradient>
		<path class="st16" d="M319.6,319c4.4-2.6,8.6-4.4,9.2-4.2c0.7,0.3-2.4,2.5-6.8,5.1c-4.4,2.6-8.6,4.4-9.2,4.2
			C312.1,323.9,315.1,321.6,319.6,319z"/>
		<linearGradient id="SVGID_17_" gradientUnits="userSpaceOnUse" x1="281.615" y1="276.3242" x2="330.9378" y2="276.3242">
			<stop  offset="0" style="stop-color:#333EDD"/>
			<stop  offset="0.1675" style="stop-color:#0C0D5E"/>
			<stop  offset="0.3892" style="stop-color:#3E35BC"/>
			<stop  offset="0.601" style="stop-color:#07074E"/>
			<stop  offset="0.8227" style="stop-color:#5B38A2"/>
			<stop  offset="0.9458" style="stop-color:#333EDD"/>
		</linearGradient>
		<path class="st17" d="M306,277.4c-13.6,3.9-24.5,6.7-24.4,6.1c0.2-0.6,11.3-4.2,24.9-8.2s24.5-6.7,24.4-6.1
			C330.8,269.8,319.6,273.4,306,277.4z"/>
		<linearGradient id="SVGID_18_" gradientUnits="userSpaceOnUse" x1="280.5564" y1="307.4746" x2="294.9834" y2="307.4746">
			<stop  offset="0" style="stop-color:#333EDD"/>
			<stop  offset="0.1675" style="stop-color:#0C0D5E"/>
			<stop  offset="0.3892" style="stop-color:#3E35BC"/>
			<stop  offset="0.601" style="stop-color:#07074E"/>
			<stop  offset="0.8227" style="stop-color:#5B38A2"/>
			<stop  offset="0.9458" style="stop-color:#333EDD"/>
		</linearGradient>
		<path class="st18" d="M286.7,307.2c-3.9-13.6-6.7-24.5-6.1-24.4c0.6,0.2,4.2,11.3,8.2,24.9c3.9,13.6,6.7,24.5,6.1,24.4
			C294.3,332,290.7,320.8,286.7,307.2z"/>
		<linearGradient id="SVGID_19_" gradientUnits="userSpaceOnUse" x1="287.7356" y1="307.4746" x2="297.0829" y2="307.4746">
			<stop  offset="0" style="stop-color:#333EDD"/>
			<stop  offset="0.1675" style="stop-color:#0C0D5E"/>
			<stop  offset="0.3892" style="stop-color:#3E35BC"/>
			<stop  offset="0.601" style="stop-color:#07074E"/>
			<stop  offset="0.8227" style="stop-color:#5B38A2"/>
			<stop  offset="0.9458" style="stop-color:#333EDD"/>
		</linearGradient>
		<path class="st19" d="M292,308.7c-2.6-4.4-4.4-8.6-4.2-9.2c0.3-0.7,2.5,2.4,5.1,6.8c2.6,4.4,4.4,8.6,4.2,9.2
			C296.8,316.2,294.5,313.1,292,308.7z"/>
		<linearGradient id="SVGID_20_" gradientUnits="userSpaceOnUse" x1="296.1259" y1="324.1142" x2="345.4487" y2="324.1142">
			<stop  offset="0" style="stop-color:#333EDD"/>
			<stop  offset="0.1675" style="stop-color:#0C0D5E"/>
			<stop  offset="0.3892" style="stop-color:#3E35BC"/>
			<stop  offset="0.601" style="stop-color:#07074E"/>
			<stop  offset="0.8227" style="stop-color:#5B38A2"/>
			<stop  offset="0.9458" style="stop-color:#333EDD"/>
		</linearGradient>
		<path class="st20" d="M321.1,323.1c13.6-3.9,24.5-6.7,24.4-6.1c-0.2,0.6-11.3,4.2-24.9,8.2c-13.6,3.9-24.5,6.7-24.4,6.1
			C296.3,330.7,307.4,327,321.1,323.1z"/>
		<linearGradient id="SVGID_21_" gradientUnits="userSpaceOnUse" x1="352.3587" y1="282.6558" x2="374.7035" y2="282.6558">
			<stop  offset="0" style="stop-color:#333EDD"/>
			<stop  offset="0.1675" style="stop-color:#0C0D5E"/>
			<stop  offset="0.3892" style="stop-color:#3E35BC"/>
			<stop  offset="0.601" style="stop-color:#07074E"/>
			<stop  offset="0.8227" style="stop-color:#5B38A2"/>
			<stop  offset="0.9458" style="stop-color:#333EDD"/>
		</linearGradient>
		<path class="st21" d="M362.4,285.5c-6.1-10.6-10.6-20.5-10-22.1c0.6-1.6,6.1,5.7,12.2,16.4c6.1,10.6,10.6,20.5,10,22.1
			C374,303.5,368.6,296.1,362.4,285.5z"/>
		<linearGradient id="SVGID_22_" gradientUnits="userSpaceOnUse" x1="236.7398" y1="242.8787" x2="354.6465" y2="242.8787">
			<stop  offset="0" style="stop-color:#333EDD"/>
			<stop  offset="0.1675" style="stop-color:#0C0D5E"/>
			<stop  offset="0.3892" style="stop-color:#3E35BC"/>
			<stop  offset="0.601" style="stop-color:#07074E"/>
			<stop  offset="0.8227" style="stop-color:#5B38A2"/>
			<stop  offset="0.9458" style="stop-color:#333EDD"/>
		</linearGradient>
		<path class="st22" d="M354.6,225.8c-0.4,1.4-27,10.1-59.6,19.5c-32.6,9.4-58.7,16-58.3,14.6c0.4-1.4,27-10.1,59.6-19.5
			C328.9,231,355,224.4,354.6,225.8z"/>
		<linearGradient id="SVGID_23_" gradientUnits="userSpaceOnUse" x1="234.2094" y1="317.3442" x2="268.6972" y2="317.3442">
			<stop  offset="0" style="stop-color:#333EDD"/>
			<stop  offset="0.1675" style="stop-color:#0C0D5E"/>
			<stop  offset="0.3892" style="stop-color:#3E35BC"/>
			<stop  offset="0.601" style="stop-color:#07074E"/>
			<stop  offset="0.8227" style="stop-color:#5B38A2"/>
			<stop  offset="0.9458" style="stop-color:#333EDD"/>
		</linearGradient>
		<path class="st23" d="M268.5,376.3c-1.4-0.4-10.1-27-19.5-59.6c-9.4-32.6-16-58.7-14.6-58.3c1.4,0.4,10.1,27,19.5,59.6
			C263.3,350.6,269.9,376.7,268.5,376.3z"/>
		<linearGradient id="SVGID_24_" gradientUnits="userSpaceOnUse" x1="271.4282" y1="357.1213" x2="389.3349" y2="357.1213">
			<stop  offset="0" style="stop-color:#333EDD"/>
			<stop  offset="0.1675" style="stop-color:#0C0D5E"/>
			<stop  offset="0.3892" style="stop-color:#3E35BC"/>
			<stop  offset="0.601" style="stop-color:#07074E"/>
			<stop  offset="0.8227" style="stop-color:#5B38A2"/>
			<stop  offset="0.9458" style="stop-color:#333EDD"/>
		</linearGradient>
		<path class="st24" d="M271.4,374.2c0.4-1.4,27-10.1,59.6-19.5c32.6-9.4,58.7-16,58.3-14.6c-0.4,1.4-27,10.1-59.6,19.5
			C297.2,369,271.1,375.6,271.4,374.2z"/>
		<g>
			<linearGradient id="SVGID_25_" gradientUnits="userSpaceOnUse" x1="310.2671" y1="288.2554" x2="310.4331" y2="288.2554">
				<stop  offset="0" style="stop-color:#333EDD"/>
				<stop  offset="0.1675" style="stop-color:#0C0D5E"/>
				<stop  offset="0.3892" style="stop-color:#3E35BC"/>
				<stop  offset="0.601" style="stop-color:#07074E"/>
				<stop  offset="0.8227" style="stop-color:#5B38A2"/>
				<stop  offset="0.9458" style="stop-color:#333EDD"/>
			</linearGradient>
			<path class="st25" d="M310.4,288.2C310.4,288.2,310.4,288.2,310.4,288.2c-0.1,0-0.1,0-0.2,0.1
				C310.3,288.3,310.4,288.2,310.4,288.2z"/>
			<linearGradient id="SVGID_26_" gradientUnits="userSpaceOnUse" x1="309.4153" y1="288.8258" x2="309.4221" y2="288.8258">
				<stop  offset="0" style="stop-color:#333EDD"/>
				<stop  offset="0.1675" style="stop-color:#0C0D5E"/>
				<stop  offset="0.3892" style="stop-color:#3E35BC"/>
				<stop  offset="0.601" style="stop-color:#07074E"/>
				<stop  offset="0.8227" style="stop-color:#5B38A2"/>
				<stop  offset="0.9458" style="stop-color:#333EDD"/>
			</linearGradient>
			<polygon class="st26" points="309.4,288.8 309.4,288.8 309.4,288.8 			"/>
			<linearGradient id="SVGID_27_" gradientUnits="userSpaceOnUse" x1="299.4694" y1="286.4135" x2="319.5226" y2="286.4135">
				<stop  offset="0" style="stop-color:#333EDD"/>
				<stop  offset="0.1675" style="stop-color:#0C0D5E"/>
				<stop  offset="0.3892" style="stop-color:#3E35BC"/>
				<stop  offset="0.601" style="stop-color:#07074E"/>
				<stop  offset="0.8227" style="stop-color:#5B38A2"/>
				<stop  offset="0.9458" style="stop-color:#333EDD"/>
			</linearGradient>
			<path class="st27" d="M319.3,282.2c-0.5-0.7-1.7-0.9-3.5-0.8c-2,0.2-4.5,0.9-7.4,2c-2.9,1.2-5.2,2.4-6.8,3.7
				c-1.5,1.2-2.1,2.2-2,3c0.2,0.8,1.1,1.2,2.8,1.2c0.4,0,0.9,0,1.3-0.1c0.3,0,0.6-0.1,1-0.1c1.5-0.3,3.2-0.8,5.2-1.5l-0.1,0.2
				c-0.2,0.2-0.2,0.3-0.2,0.4c0.1,0.1,0.5,0.1,1.2,0c0.8-0.2,1.2-0.3,1.5-0.4c0.2-0.2,0.1-0.2-0.4-0.2c-0.2-0.1-0.2-0.3,0.1-0.5
				c0.2-0.2,0.6-0.4,1.1-0.7l0.3-0.1c2.5-1.2,4.3-2.4,5.4-3.5C319.5,283.7,319.8,282.9,319.3,282.2z M310.6,288.9
				c-4,1.6-7.7,1.9-8.3,0.5c-0.5-1.3,2.3-3.7,6.3-5.4c4-1.6,7.7-1.9,8.3-0.5C317.4,284.9,314.6,287.3,310.6,288.9z"/>
		</g>
		<g>
			<linearGradient id="SVGID_28_" gradientUnits="userSpaceOnUse" x1="275.5901" y1="264.5151" x2="328.552" y2="264.5151">
				<stop  offset="0" style="stop-color:#333EDD"/>
				<stop  offset="0.1675" style="stop-color:#0C0D5E"/>
				<stop  offset="0.3892" style="stop-color:#3E35BC"/>
				<stop  offset="0.601" style="stop-color:#07074E"/>
				<stop  offset="0.8227" style="stop-color:#5B38A2"/>
				<stop  offset="0.9458" style="stop-color:#333EDD"/>
			</linearGradient>
			<path class="st28" d="M327.9,253.4c-1.4-1.7-4.5-2.4-9.3-2c-5.4,0.5-11.9,2.3-19.6,5.3c-7.7,3.1-13.7,6.4-18,9.8
				c-3.9,3.2-5.7,5.8-5.3,7.9c0.5,2.2,2.9,3.2,7.4,3.2c1.1,0,2.3-0.1,3.5-0.2c0.8-0.1,1.7-0.2,2.6-0.4c3.9-0.7,8.5-2,13.7-3.9
				l-0.4,0.5c-0.5,0.5-0.6,0.8-0.5,1c0.2,0.3,1.2,0.3,3.1,0c2-0.4,3.3-0.8,3.9-1.2c0.6-0.4,0.2-0.6-1.1-0.6
				c-0.5-0.3-0.4-0.7,0.2-1.3c0.6-0.5,1.5-1.1,2.8-1.8l0.7-0.3c6.6-3.1,11.4-6.2,14.3-9.3C328.6,257.4,329.2,255.1,327.9,253.4z
				 M304.9,271.2c-10.6,4.3-20.4,4.9-21.8,1.4c-1.4-3.5,6-9.9,16.6-14.2c10.6-4.3,20.4-4.9,21.8-1.4
				C322.9,260.5,315.5,266.9,304.9,271.2z"/>
			<linearGradient id="SVGID_29_" gradientUnits="userSpaceOnUse" x1="304.1076" y1="269.3799" x2="304.5459" y2="269.3799">
				<stop  offset="0" style="stop-color:#333EDD"/>
				<stop  offset="0.1675" style="stop-color:#0C0D5E"/>
				<stop  offset="0.3892" style="stop-color:#3E35BC"/>
				<stop  offset="0.601" style="stop-color:#07074E"/>
				<stop  offset="0.8227" style="stop-color:#5B38A2"/>
				<stop  offset="0.9458" style="stop-color:#333EDD"/>
			</linearGradient>
			<path class="st29" d="M304.5,269.3C304.5,269.3,304.5,269.3,304.5,269.3c-0.1,0.1-0.3,0.1-0.4,0.2
				C304.2,269.4,304.4,269.4,304.5,269.3z"/>
			<linearGradient id="SVGID_30_" gradientUnits="userSpaceOnUse" x1="301.8579" y1="270.8863" x2="301.876" y2="270.8863">
				<stop  offset="0" style="stop-color:#333EDD"/>
				<stop  offset="0.1675" style="stop-color:#0C0D5E"/>
				<stop  offset="0.3892" style="stop-color:#3E35BC"/>
				<stop  offset="0.601" style="stop-color:#07074E"/>
				<stop  offset="0.8227" style="stop-color:#5B38A2"/>
				<stop  offset="0.9458" style="stop-color:#333EDD"/>
			</linearGradient>
			<path class="st30" d="M301.9,270.9C301.9,270.9,301.9,270.9,301.9,270.9L301.9,270.9C301.9,270.9,301.9,270.9,301.9,270.9z"/>
		</g>
		<g>
			<linearGradient id="SVGID_31_" gradientUnits="userSpaceOnUse" x1="290.5088" y1="226.2786" x2="291.5565" y2="226.2786">
				<stop  offset="0" style="stop-color:#333EDD"/>
				<stop  offset="0.1675" style="stop-color:#0C0D5E"/>
				<stop  offset="0.3892" style="stop-color:#3E35BC"/>
				<stop  offset="0.601" style="stop-color:#07074E"/>
				<stop  offset="0.8227" style="stop-color:#5B38A2"/>
				<stop  offset="0.9458" style="stop-color:#333EDD"/>
			</linearGradient>
			<path class="st31" d="M291.5,226.1C291.5,226.1,291.5,226.1,291.5,226.1c-0.3,0.1-0.7,0.3-1,0.4
				C290.8,226.4,291.2,226.2,291.5,226.1z"/>
			<linearGradient id="SVGID_32_" gradientUnits="userSpaceOnUse" x1="285.131" y1="229.8795" x2="285.174" y2="229.8795">
				<stop  offset="0" style="stop-color:#333EDD"/>
				<stop  offset="0.1675" style="stop-color:#0C0D5E"/>
				<stop  offset="0.3892" style="stop-color:#3E35BC"/>
				<stop  offset="0.601" style="stop-color:#07074E"/>
				<stop  offset="0.8227" style="stop-color:#5B38A2"/>
				<stop  offset="0.9458" style="stop-color:#333EDD"/>
			</linearGradient>
			<path class="st32" d="M285.1,229.9C285.1,229.9,285.2,229.9,285.1,229.9L285.1,229.9C285.2,229.9,285.1,229.9,285.1,229.9z"/>
			<linearGradient id="SVGID_33_" gradientUnits="userSpaceOnUse" x1="222.3374" y1="214.6491" x2="348.9433" y2="214.6491">
				<stop  offset="0" style="stop-color:#333EDD"/>
				<stop  offset="0.1675" style="stop-color:#0C0D5E"/>
				<stop  offset="0.3892" style="stop-color:#3E35BC"/>
				<stop  offset="0.601" style="stop-color:#07074E"/>
				<stop  offset="0.8227" style="stop-color:#5B38A2"/>
				<stop  offset="0.9458" style="stop-color:#333EDD"/>
			</linearGradient>
			<path class="st33" d="M347.3,188.2c-3.3-4.1-10.7-5.7-22.2-4.8c-12.8,1.1-28.5,5.4-47,12.8c-18.5,7.4-32.8,15.2-43,23.5
				c-9.3,7.6-13.5,13.9-12.7,19c1.1,5.2,7,7.7,17.7,7.6c2.6,0,5.4-0.2,8.4-0.6c2-0.2,4-0.5,6.1-0.9c9.4-1.7,20.4-4.8,32.9-9.3
				l-0.9,1.3c-1.1,1.2-1.5,2-1.2,2.4c0.5,0.7,3,0.8,7.4,0.1c4.7-1,7.9-1.9,9.3-2.8c1.5-1,0.6-1.5-2.7-1.5c-1.2-0.6-1-1.6,0.5-3
				c1.4-1.2,3.6-2.7,6.7-4.3l1.8-0.8c15.9-7.5,27.3-14.8,34.1-22.2C349,197.7,350.5,192.2,347.3,188.2z M292.4,230.6
				c-25.4,10.3-48.7,11.8-52.1,3.4c-3.4-8.4,14.3-23.7,39.7-34c25.4-10.3,48.7-11.8,52.1-3.4C335.5,205,317.8,220.3,292.4,230.6z"/>
		</g>
		<linearGradient id="SVGID_34_" gradientUnits="userSpaceOnUse" x1="191.6977" y1="327.397" x2="254.7496" y2="327.397">
			<stop  offset="0" style="stop-color:#333EDD"/>
			<stop  offset="0.1675" style="stop-color:#0C0D5E"/>
			<stop  offset="0.3892" style="stop-color:#3E35BC"/>
			<stop  offset="0.601" style="stop-color:#07074E"/>
			<stop  offset="0.8227" style="stop-color:#5B38A2"/>
			<stop  offset="0.9458" style="stop-color:#333EDD"/>
		</linearGradient>
		<path class="st34" d="M247.2,390.6c-5.1,0.9-11.4-3.4-19-12.7c-8.2-10.2-16.1-24.6-23.5-43c-7.4-18.5-11.6-34.1-12.8-47
			c-0.9-11.5,0.7-18.9,4.8-22.2c4.1-3.3,9.5-1.7,16.3,4.7c7.3,6.8,14.7,18.2,22.2,34.1l0.8,1.8c1.7,3.1,3.1,5.3,4.3,6.7
			c1.4,1.5,2.4,1.7,3,0.5c0-3.3,0.5-4.1,1.5-2.7c0.9,1.5,1.9,4.6,2.8,9.3c0.7,4.4,0.6,6.9-0.1,7.4c-0.4,0.4-1.2,0-2.4-1.2l-1.3-0.9
			c4.5,12.5,7.6,23.4,9.3,32.9c0.4,2.1,0.7,4.2,0.9,6.1c0.4,3,0.6,5.8,0.6,8.4C254.8,383.5,252.3,389.5,247.2,390.6z M205.2,280.9
			c-8.4,3.4-6.9,26.8,3.4,52.1c10.3,25.4,25.5,43.1,34,39.7c8.4-3.4,6.9-26.8-3.4-52.1C228.8,295.3,213.6,277.5,205.2,280.9z"/>
		<linearGradient id="SVGID_35_" gradientUnits="userSpaceOnUse" x1="294.6163" y1="304.2717" x2="304.6031" y2="304.2717">
			<stop  offset="0" style="stop-color:#333EDD"/>
			<stop  offset="0.1675" style="stop-color:#0C0D5E"/>
			<stop  offset="0.3892" style="stop-color:#3E35BC"/>
			<stop  offset="0.601" style="stop-color:#07074E"/>
			<stop  offset="0.8227" style="stop-color:#5B38A2"/>
			<stop  offset="0.9458" style="stop-color:#333EDD"/>
		</linearGradient>
		<path class="st35" d="M304.5,310.1c0-0.3-0.1-0.6-0.1-1c-0.3-1.5-0.8-3.2-1.5-5.2l0.2,0.1c0.2,0.2,0.3,0.2,0.4,0.2
			c0.1-0.1,0.1-0.5,0-1.2c-0.2-0.8-0.3-1.2-0.4-1.5c-0.2-0.2-0.2-0.1-0.2,0.4c-0.1,0.2-0.3,0.2-0.5-0.1c-0.2-0.2-0.4-0.6-0.7-1.1
			l-0.1-0.3c-1.2-2.5-2.4-4.3-3.5-5.4c-1.1-1-1.9-1.3-2.6-0.7c-0.7,0.5-0.9,1.7-0.8,3.5c0.2,2,0.9,4.5,2,7.4
			c1.2,2.9,2.4,5.2,3.7,6.8c1.2,1.5,2.2,2.1,3,2c0.8-0.2,1.2-1.1,1.2-2.8C304.6,311.1,304.6,310.6,304.5,310.1z M302.7,311.5
			c-1.3,0.5-3.7-2.3-5.4-6.3c-1.6-4-1.9-7.7-0.5-8.3c1.3-0.5,3.7,2.3,5.4,6.3C303.8,307.2,304,310.9,302.7,311.5z"/>
		<linearGradient id="SVGID_36_" gradientUnits="userSpaceOnUse" x1="323.0676" y1="295.5928" x2="333.0545" y2="295.5928">
			<stop  offset="0" style="stop-color:#333EDD"/>
			<stop  offset="0.1675" style="stop-color:#0C0D5E"/>
			<stop  offset="0.3892" style="stop-color:#3E35BC"/>
			<stop  offset="0.601" style="stop-color:#07074E"/>
			<stop  offset="0.8227" style="stop-color:#5B38A2"/>
			<stop  offset="0.9458" style="stop-color:#333EDD"/>
		</linearGradient>
		<path class="st36" d="M333,301.8c-0.2-2-0.9-4.5-2-7.4c-1.2-2.9-2.4-5.2-3.7-6.8c-1.2-1.5-2.2-2.1-3-2c-0.8,0.2-1.2,1.1-1.2,2.8
			c0,0.4,0,0.9,0.1,1.3c0,0.3,0.1,0.6,0.1,1c0.3,1.5,0.8,3.2,1.5,5.2l-0.2-0.1c-0.2-0.2-0.3-0.2-0.4-0.2c-0.1,0.1-0.1,0.5,0,1.2
			c0.2,0.8,0.3,1.2,0.4,1.5c0.2,0.2,0.2,0.1,0.2-0.4c0.1-0.2,0.3-0.2,0.5,0.1c0.2,0.2,0.4,0.6,0.7,1.1l0.1,0.3
			c1.2,2.5,2.4,4.3,3.5,5.4c1.1,1,1.9,1.3,2.6,0.7C332.9,304.8,333.2,303.7,333,301.8z M330.9,303c-1.3,0.5-3.7-2.3-5.4-6.3
			c-1.6-4-1.9-7.7-0.5-8.3c1.3-0.5,3.7,2.3,5.4,6.3C332,298.7,332.3,302.4,330.9,303z"/>
		<linearGradient id="SVGID_37_" gradientUnits="userSpaceOnUse" x1="308.1483" y1="313.451" x2="328.2014" y2="313.451">
			<stop  offset="0" style="stop-color:#333EDD"/>
			<stop  offset="0.1675" style="stop-color:#0C0D5E"/>
			<stop  offset="0.3892" style="stop-color:#3E35BC"/>
			<stop  offset="0.601" style="stop-color:#07074E"/>
			<stop  offset="0.8227" style="stop-color:#5B38A2"/>
			<stop  offset="0.9458" style="stop-color:#333EDD"/>
		</linearGradient>
		<path class="st37" d="M328.2,309.7c-0.2-0.8-1.1-1.2-2.8-1.2c-0.4,0-0.9,0-1.3,0.1c-0.3,0-0.6,0.1-1,0.1c-1.5,0.3-3.2,0.8-5.2,1.5
			l0.1-0.2c0.2-0.2,0.2-0.3,0.2-0.4c-0.1-0.1-0.5-0.1-1.2,0c-0.8,0.2-1.2,0.3-1.5,0.4c-0.2,0.2-0.1,0.2,0.4,0.2
			c0.2,0.1,0.2,0.3-0.1,0.5c-0.2,0.2-0.6,0.4-1.1,0.7l-0.3,0.1c-2.5,1.2-4.3,2.4-5.4,3.5c-1,1.1-1.3,1.9-0.7,2.6
			c0.5,0.7,1.7,0.9,3.5,0.8c2-0.2,4.5-0.9,7.4-2c2.9-1.2,5.2-2.4,6.8-3.7C327.7,311.5,328.3,310.5,328.2,309.7z M319.1,315.8
			c-4,1.6-7.7,1.9-8.3,0.5c-0.5-1.3,2.3-3.7,6.3-5.4c4-1.6,7.7-1.9,8.3-0.5C325.9,311.7,323.1,314.1,319.1,315.8z"/>
		<linearGradient id="SVGID_38_" gradientUnits="userSpaceOnUse" x1="262.7729" y1="311.6799" x2="289.1489" y2="311.6799">
			<stop  offset="0" style="stop-color:#333EDD"/>
			<stop  offset="0.1675" style="stop-color:#0C0D5E"/>
			<stop  offset="0.3892" style="stop-color:#3E35BC"/>
			<stop  offset="0.601" style="stop-color:#07074E"/>
			<stop  offset="0.8227" style="stop-color:#5B38A2"/>
			<stop  offset="0.9458" style="stop-color:#333EDD"/>
		</linearGradient>
		<path class="st38" d="M288.9,327.2c-0.1-0.8-0.2-1.7-0.4-2.6c-0.7-3.9-2-8.5-3.9-13.7l0.5,0.4c0.5,0.5,0.8,0.6,1,0.5
			c0.3-0.2,0.3-1.2,0-3.1c-0.4-2-0.8-3.3-1.2-3.9c-0.4-0.6-0.6-0.2-0.6,1.1c-0.3,0.5-0.7,0.4-1.3-0.2c-0.5-0.6-1.1-1.5-1.8-2.8
			l-0.3-0.7c-3.1-6.6-6.2-11.4-9.3-14.3c-2.8-2.7-5.1-3.3-6.8-2c-1.7,1.4-2.4,4.5-2,9.3c0.5,5.4,2.3,11.9,5.3,19.6
			c3.1,7.7,6.4,13.7,9.8,18c3.2,3.9,5.8,5.7,7.9,5.3c2.2-0.5,3.2-2.9,3.2-7.4C289.1,329.6,289.1,328.4,288.9,327.2z M284,330.7
			c-3.5,1.4-9.9-6-14.2-16.6c-4.3-10.6-4.9-20.4-1.4-21.8c3.5-1.4,9.9,6,14.2,16.6C286.9,319.5,287.6,329.2,284,330.7z"/>
		<linearGradient id="SVGID_39_" gradientUnits="userSpaceOnUse" x1="371.3252" y1="272.603" x2="434.377" y2="272.603">
			<stop  offset="0" style="stop-color:#333EDD"/>
			<stop  offset="0.1675" style="stop-color:#0C0D5E"/>
			<stop  offset="0.3892" style="stop-color:#3E35BC"/>
			<stop  offset="0.601" style="stop-color:#07074E"/>
			<stop  offset="0.8227" style="stop-color:#5B38A2"/>
			<stop  offset="0.9458" style="stop-color:#333EDD"/>
		</linearGradient>
		<path class="st39" d="M429.3,334.3c-4.1,3.3-9.5,1.7-16.3-4.7c-7.3-6.8-14.7-18.2-22.2-34.1l-0.8-1.8c-1.7-3.1-3.1-5.3-4.3-6.7
			c-1.4-1.5-2.4-1.7-3-0.5c0,3.3-0.5,4.1-1.5,2.7c-0.9-1.5-1.9-4.6-2.8-9.3c-0.7-4.4-0.6-6.9,0.1-7.4c0.4-0.4,1.2,0,2.4,1.2l1.3,0.9
			c-4.5-12.5-7.6-23.4-9.3-32.9c-0.4-2.1-0.7-4.2-0.9-6.1c-0.4-3-0.6-5.8-0.6-8.4c-0.1-10.7,2.4-16.6,7.6-17.7
			c5.1-0.9,11.4,3.4,19,12.7c8.2,10.2,16.1,24.6,23.5,43c7.4,18.5,11.6,34.1,12.8,47C435.1,323.6,433.5,331,429.3,334.3z
			 M383.6,227.2c-8.4,3.4-6.9,26.8,3.4,52.1c10.3,25.4,25.5,43.1,34,39.7c8.4-3.4,6.9-26.8-3.4-52.1
			C407.2,241.6,392,223.8,383.6,227.2z"/>
		<linearGradient id="SVGID_40_" gradientUnits="userSpaceOnUse" x1="298.5116" y1="335.9232" x2="351.4736" y2="335.9232">
			<stop  offset="0" style="stop-color:#333EDD"/>
			<stop  offset="0.1675" style="stop-color:#0C0D5E"/>
			<stop  offset="0.3892" style="stop-color:#3E35BC"/>
			<stop  offset="0.601" style="stop-color:#07074E"/>
			<stop  offset="0.8227" style="stop-color:#5B38A2"/>
			<stop  offset="0.9458" style="stop-color:#333EDD"/>
		</linearGradient>
		<path class="st40" d="M351.4,325.9c-0.5-2.2-2.9-3.2-7.4-3.2c-1.1,0-2.3,0.1-3.5,0.2c-0.8,0.1-1.7,0.2-2.6,0.4
			c-3.9,0.7-8.5,2-13.7,3.9l0.4-0.5c0.5-0.5,0.6-0.8,0.5-1c-0.2-0.3-1.2-0.3-3.1,0c-2,0.4-3.3,0.8-3.9,1.2c-0.6,0.4-0.2,0.6,1.1,0.6
			c0.5,0.3,0.4,0.7-0.2,1.3c-0.6,0.5-1.5,1.1-2.8,1.8l-0.7,0.3c-6.6,3.1-11.4,6.2-14.3,9.3c-2.7,2.8-3.3,5.1-2,6.8
			c1.4,1.7,4.5,2.4,9.3,2c5.4-0.5,11.9-2.3,19.6-5.3c7.7-3.1,13.7-6.4,18-9.8C350,330.7,351.8,328,351.4,325.9z M327.4,342.1
			c-10.6,4.3-20.4,4.9-21.8,1.4c-1.4-3.5,6-9.9,16.6-14.2c10.6-4.3,20.4-4.9,21.8-1.4C345.4,331.4,338,337.7,327.4,342.1z"/>
		<linearGradient id="SVGID_41_" gradientUnits="userSpaceOnUse" x1="277.1314" y1="385.3509" x2="403.7374" y2="385.3509">
			<stop  offset="0" style="stop-color:#333EDD"/>
			<stop  offset="0.1675" style="stop-color:#0C0D5E"/>
			<stop  offset="0.3892" style="stop-color:#3E35BC"/>
			<stop  offset="0.601" style="stop-color:#07074E"/>
			<stop  offset="0.8227" style="stop-color:#5B38A2"/>
			<stop  offset="0.9458" style="stop-color:#333EDD"/>
		</linearGradient>
		<path class="st41" d="M390.9,380.4c-10.2,8.2-24.6,16.1-43,23.5c-18.5,7.4-34.1,11.6-47,12.8c-11.5,0.9-18.9-0.7-22.2-4.8
			c-3.3-4.1-1.7-9.5,4.7-16.3c6.8-7.3,18.2-14.7,34.1-22.2l1.8-0.8c3.1-1.7,5.3-3.1,6.7-4.3c1.5-1.4,1.7-2.4,0.5-3
			c-3.3,0-4.1-0.5-2.7-1.5c1.5-0.9,4.6-1.9,9.3-2.8c4.4-0.7,6.9-0.6,7.4,0.1c0.4,0.4,0,1.2-1.2,2.4l-0.9,1.3
			c12.5-4.5,23.4-7.6,32.9-9.3c2.1-0.4,4.2-0.7,6.1-0.9c3-0.4,5.8-0.6,8.4-0.6c10.7-0.1,16.6,2.4,17.7,7.6
			C404.5,366.5,400.3,372.8,390.9,380.4z M333.7,369.4c-25.4,10.3-43.1,25.5-39.7,34c3.4,8.4,26.8,6.9,52.1-3.4s43.1-25.5,39.7-34
			C382.4,357.6,359,359.1,333.7,369.4z"/>
		<linearGradient id="SVGID_42_" gradientUnits="userSpaceOnUse" x1="337.9149" y1="288.7584" x2="364.2907" y2="288.7584">
			<stop  offset="0" style="stop-color:#333EDD"/>
			<stop  offset="0.1675" style="stop-color:#0C0D5E"/>
			<stop  offset="0.3892" style="stop-color:#3E35BC"/>
			<stop  offset="0.601" style="stop-color:#07074E"/>
			<stop  offset="0.8227" style="stop-color:#5B38A2"/>
			<stop  offset="0.9458" style="stop-color:#333EDD"/>
		</linearGradient>
		<path class="st42" d="M364.2,305.3c-0.5-5.4-2.3-11.9-5.3-19.6c-3.1-7.7-6.4-13.7-9.8-18c-3.2-3.9-5.8-5.7-7.9-5.3
			c-2.2,0.5-3.2,2.9-3.2,7.4c0,1.1,0.1,2.3,0.2,3.5c0.1,0.8,0.2,1.7,0.4,2.6c0.7,3.9,2,8.5,3.9,13.7l-0.5-0.4
			c-0.5-0.5-0.8-0.6-1-0.5c-0.3,0.2-0.3,1.2,0,3.1c0.4,2,0.8,3.3,1.2,3.9c0.4,0.6,0.6,0.2,0.6-1.1c0.3-0.5,0.7-0.4,1.3,0.2
			c0.5,0.6,1.1,1.5,1.8,2.8l0.3,0.7c3.1,6.6,6.2,11.4,9.3,14.3c2.8,2.7,5.1,3.3,6.8,2C363.9,313.2,364.6,310.1,364.2,305.3z
			 M358.7,308.2c-3.5,1.4-9.9-6-14.2-16.6c-4.3-10.6-4.9-20.4-1.4-21.8c3.5-1.4,9.9,6,14.2,16.6C361.6,297,362.2,306.8,358.7,308.2z
			"/>
	</g>
	<g>
		<linearGradient id="SVGID_43_" gradientUnits="userSpaceOnUse" x1="423.9345" y1="256.6213" x2="510.1902" y2="256.6213">
			<stop  offset="0.1576" style="stop-color:#5B38A2"/>
			<stop  offset="0.3202" style="stop-color:#3E35BC"/>
			<stop  offset="0.5616" style="stop-color:#1B2090"/>
			<stop  offset="0.7734" style="stop-color:#07074E"/>
			<stop  offset="0.9458" style="stop-color:#333EDD"/>
		</linearGradient>
		<path class="st43" d="M424.4,109.2c3.4,0.9,25.3,67.6,48.9,149.1c23.6,81.4,39.9,146.7,36.5,145.8c-3.4-0.9-25.3-67.6-48.9-149.1
			C437.3,173.6,421,108.3,424.4,109.2z"/>
		<linearGradient id="SVGID_44_" gradientUnits="userSpaceOnUse" x1="307.7967" y1="415.1258" x2="405.0355" y2="415.1258">
			<stop  offset="0.1576" style="stop-color:#5B38A2"/>
			<stop  offset="0.3202" style="stop-color:#3E35BC"/>
			<stop  offset="0.5616" style="stop-color:#1B2090"/>
			<stop  offset="0.7734" style="stop-color:#07074E"/>
			<stop  offset="0.9458" style="stop-color:#333EDD"/>
		</linearGradient>
		<path class="st44" d="M363.6,417.8c-26.6,15.4-51.3,26.6-55.2,25.1c-4-1.5,14.4-15.2,40.9-30.5c26.6-15.4,51.3-26.6,55.2-25.1
			C408.5,388.8,390.1,402.5,363.6,417.8z"/>
		<linearGradient id="SVGID_45_" gradientUnits="userSpaceOnUse" x1="158.8073" y1="343.3788" x2="214.6927" y2="343.3788">
			<stop  offset="0.1576" style="stop-color:#5B38A2"/>
			<stop  offset="0.3202" style="stop-color:#3E35BC"/>
			<stop  offset="0.5616" style="stop-color:#1B2090"/>
			<stop  offset="0.7734" style="stop-color:#07074E"/>
			<stop  offset="0.9458" style="stop-color:#333EDD"/>
		</linearGradient>
		<path class="st45" d="M214.6,391.5c-1.5,4-15.2-14.4-30.5-40.9c-15.4-26.6-26.6-51.3-25.1-55.2c1.5-4,15.2,14.4,30.5,40.9
			C204.8,362.8,216.1,387.5,214.6,391.5z"/>
		<linearGradient id="SVGID_46_" gradientUnits="userSpaceOnUse" x1="221.0391" y1="184.8743" x2="318.2782" y2="184.8743">
			<stop  offset="0.1576" style="stop-color:#5B38A2"/>
			<stop  offset="0.3202" style="stop-color:#3E35BC"/>
			<stop  offset="0.5616" style="stop-color:#1B2090"/>
			<stop  offset="0.7734" style="stop-color:#07074E"/>
			<stop  offset="0.9458" style="stop-color:#333EDD"/>
		</linearGradient>
		<path class="st46" d="M262.5,182.2c26.6-15.4,51.3-26.6,55.2-25.1c4,1.5-14.4,15.2-40.9,30.5c-26.6,15.4-51.3,26.6-55.2,25.1
			C217.6,211.2,235.9,197.5,262.5,182.2z"/>
		<linearGradient id="SVGID_47_" gradientUnits="userSpaceOnUse" x1="411.3822" y1="256.6213" x2="467.2676" y2="256.6213">
			<stop  offset="0.1576" style="stop-color:#5B38A2"/>
			<stop  offset="0.3202" style="stop-color:#3E35BC"/>
			<stop  offset="0.5616" style="stop-color:#1B2090"/>
			<stop  offset="0.7734" style="stop-color:#07074E"/>
			<stop  offset="0.9458" style="stop-color:#333EDD"/>
		</linearGradient>
		<path class="st47" d="M436.6,263.8c-15.4-26.6-26.6-51.3-25.1-55.2c1.5-4,15.2,14.4,30.5,40.9c15.4,26.6,26.6,51.3,25.1,55.2
			C465.6,308.7,452,290.3,436.6,263.8z"/>
		<linearGradient id="SVGID_48_" gradientUnits="userSpaceOnUse" x1="122.2134" y1="157.1367" x2="417.1039" y2="157.1367">
			<stop  offset="0.1576" style="stop-color:#5B38A2"/>
			<stop  offset="0.3202" style="stop-color:#3E35BC"/>
			<stop  offset="0.5616" style="stop-color:#1B2090"/>
			<stop  offset="0.7734" style="stop-color:#07074E"/>
			<stop  offset="0.9458" style="stop-color:#333EDD"/>
		</linearGradient>
		<path class="st48" d="M417.1,114.5c-0.9,3.4-67.6,25.3-149.1,48.9c-81.4,23.6-146.7,39.9-145.8,36.5c0.9-3.4,67.6-25.3,149.1-48.9
			C352.7,127.4,418,111,417.1,114.5z"/>
		<linearGradient id="SVGID_49_" gradientUnits="userSpaceOnUse" x1="115.8847" y1="343.3788" x2="202.1403" y2="343.3788">
			<stop  offset="0.1576" style="stop-color:#5B38A2"/>
			<stop  offset="0.3202" style="stop-color:#3E35BC"/>
			<stop  offset="0.5616" style="stop-color:#1B2090"/>
			<stop  offset="0.7734" style="stop-color:#07074E"/>
			<stop  offset="0.9458" style="stop-color:#333EDD"/>
		</linearGradient>
		<path class="st49" d="M201.7,490.8c-3.4-0.9-25.3-67.6-48.9-149.1c-23.6-81.4-39.9-146.7-36.5-145.8c3.4,0.9,25.3,67.6,48.9,149.1
			C188.8,426.4,205.1,491.7,201.7,490.8z"/>
		<linearGradient id="SVGID_50_" gradientUnits="userSpaceOnUse" x1="208.9707" y1="442.8633" x2="503.8615" y2="442.8633">
			<stop  offset="0.1576" style="stop-color:#5B38A2"/>
			<stop  offset="0.3202" style="stop-color:#3E35BC"/>
			<stop  offset="0.5616" style="stop-color:#1B2090"/>
			<stop  offset="0.7734" style="stop-color:#07074E"/>
			<stop  offset="0.9458" style="stop-color:#333EDD"/>
		</linearGradient>
		<path class="st50" d="M209,485.5c0.9-3.4,67.6-25.3,149.1-48.9s146.7-39.9,145.8-36.5c-0.9,3.4-67.6,25.3-149.1,48.9
			C273.4,472.6,208.1,489,209,485.5z"/>
		<g>
			<linearGradient id="SVGID_51_" gradientUnits="userSpaceOnUse" x1="256.6923" y1="115.619" x2="259.3127" y2="115.619">
				<stop  offset="0.1576" style="stop-color:#5B38A2"/>
				<stop  offset="0.3202" style="stop-color:#3E35BC"/>
				<stop  offset="0.5616" style="stop-color:#1B2090"/>
				<stop  offset="0.7734" style="stop-color:#07074E"/>
				<stop  offset="0.9458" style="stop-color:#333EDD"/>
			</linearGradient>
			<path class="st51" d="M259.3,115.1C259.3,115.1,259.3,115.1,259.3,115.1c-0.8,0.3-1.7,0.7-2.6,1.1
				C257.5,115.8,258.4,115.5,259.3,115.1z"/>
			<linearGradient id="SVGID_52_" gradientUnits="userSpaceOnUse" x1="243.242" y1="124.6251" x2="243.3496" y2="124.6251">
				<stop  offset="0.1576" style="stop-color:#5B38A2"/>
				<stop  offset="0.3202" style="stop-color:#3E35BC"/>
				<stop  offset="0.5616" style="stop-color:#1B2090"/>
				<stop  offset="0.7734" style="stop-color:#07074E"/>
				<stop  offset="0.9458" style="stop-color:#333EDD"/>
			</linearGradient>
			<path class="st52" d="M243.2,124.7c0,0,0.1,0,0.1-0.1l0,0C243.3,124.6,243.3,124.6,243.2,124.7z"/>
			<linearGradient id="SVGID_53_" gradientUnits="userSpaceOnUse" x1="86.192" y1="86.5331" x2="402.84" y2="86.5331">
				<stop  offset="0.1576" style="stop-color:#5B38A2"/>
				<stop  offset="0.3202" style="stop-color:#3E35BC"/>
				<stop  offset="0.5616" style="stop-color:#1B2090"/>
				<stop  offset="0.7734" style="stop-color:#07074E"/>
				<stop  offset="0.9458" style="stop-color:#333EDD"/>
			</linearGradient>
			<path class="st53" d="M398.7,20.3C390.5,10,372,6,343.2,8.3c-32.1,2.8-71.2,13.5-117.4,31.9c-46.2,18.5-82.1,38-107.6,58.7
				c-23.3,18.9-33.9,34.7-31.7,47.5c2.8,12.9,17.6,19.2,44.3,19c6.6-0.1,13.6-0.6,21.1-1.5c4.9-0.6,10-1.4,15.3-2.3
				c23.6-4.2,51-11.9,82.2-23.2l-2.2,3.1c-2.8,3.1-3.8,5-2.9,5.9c1.3,1.8,7.5,1.9,18.5,0.3c11.8-2.4,19.6-4.8,23.4-7.1
				c3.7-2.5,1.4-3.8-6.7-3.7c-3-1.6-2.5-4.1,1.3-7.6c3.4-3.1,9-6.7,16.7-10.8l4.4-2.1C341.5,97.9,369.9,79.4,387,61
				C403,44,406.8,30.5,398.7,20.3z M261.4,126.3c-63.4,25.8-121.8,29.6-130.4,8.4c-8.6-21.1,35.9-59.1,99.3-84.9
				c63.4-25.8,121.8-29.6,130.4-8.4C369.3,62.5,324.9,100.5,261.4,126.3z"/>
		</g>
		<linearGradient id="SVGID_54_" gradientUnits="userSpaceOnUse" x1="9.5608" y1="368.5214" x2="167.2566" y2="368.5214">
			<stop  offset="0.1576" style="stop-color:#5B38A2"/>
			<stop  offset="0.3202" style="stop-color:#3E35BC"/>
			<stop  offset="0.5616" style="stop-color:#1B2090"/>
			<stop  offset="0.7734" style="stop-color:#07074E"/>
			<stop  offset="0.9458" style="stop-color:#333EDD"/>
		</linearGradient>
		<path class="st54" d="M148.3,526.6c-12.8,2.2-28.6-8.4-47.5-31.7c-20.6-25.5-40.2-61.4-58.7-107.6C23.7,341,13,301.9,10.2,269.8
			c-2.3-28.8,1.6-47.3,12-55.5c10.2-8.1,23.7-4.3,40.7,11.7c18.3,17.1,36.8,45.6,55.5,85.3l2.1,4.4c4.1,7.7,7.7,13.2,10.8,16.7
			c3.5,3.9,6,4.3,7.6,1.3c-0.1-8.1,1.2-10.4,3.7-6.7c2.3,3.7,4.7,11.5,7.1,23.4c1.6,11,1.6,17.2-0.3,18.5c-0.9,0.9-2.9,0-5.9-2.9
			l-3.1-2.2c11.3,31.2,19,58.6,23.2,82.2c0.9,5.3,1.7,10.4,2.3,15.3c0.9,7.5,1.4,14.5,1.5,21.1C167.5,508.9,161.2,523.7,148.3,526.6
			z M43.3,252.3c-21.1,8.6-17.3,67,8.4,130.4c25.8,63.4,63.8,107.9,84.9,99.3c21.1-8.6,17.3-67-8.4-130.4
			C102.4,288.2,64.4,243.7,43.3,252.3z"/>
		<linearGradient id="SVGID_55_" gradientUnits="userSpaceOnUse" x1="458.8182" y1="231.4787" x2="616.5139" y2="231.4787">
			<stop  offset="0.1576" style="stop-color:#5B38A2"/>
			<stop  offset="0.3202" style="stop-color:#3E35BC"/>
			<stop  offset="0.5616" style="stop-color:#1B2090"/>
			<stop  offset="0.7734" style="stop-color:#07074E"/>
			<stop  offset="0.9458" style="stop-color:#333EDD"/>
		</linearGradient>
		<path class="st55" d="M603.9,385.7c-10.2,8.1-23.7,4.3-40.7-11.7c-18.3-17.1-36.8-45.6-55.5-85.3l-2.1-4.4
			c-4.1-7.7-7.7-13.2-10.8-16.6c-3.5-3.9-6-4.3-7.6-1.3c0.1,8.1-1.2,10.4-3.7,6.7c-2.3-3.7-4.7-11.5-7.1-23.4
			c-1.6-11-1.6-17.2,0.3-18.5c0.9-0.9,2.9,0,5.9,2.9l3.1,2.2c-11.3-31.2-19-58.6-23.2-82.2c-0.9-5.3-1.7-10.4-2.3-15.3
			c-0.9-7.5-1.4-14.5-1.5-21.1c-0.2-26.7,6.1-41.4,19-44.3c12.8-2.2,28.6,8.4,47.5,31.7c20.6,25.5,40.2,61.4,58.7,107.6
			c18.5,46.2,29.1,85.4,31.9,117.4C618.2,359,614.2,377.5,603.9,385.7z M489.4,118c-21.1,8.6-17.3,67,8.4,130.4
			c25.8,63.4,63.8,107.9,84.9,99.3c21.1-8.6,17.3-67-8.4-130.4C548.6,153.9,510.5,109.4,489.4,118z"/>
		<linearGradient id="SVGID_56_" gradientUnits="userSpaceOnUse" x1="223.2347" y1="513.467" x2="539.8828" y2="513.467">
			<stop  offset="0.1576" style="stop-color:#5B38A2"/>
			<stop  offset="0.3202" style="stop-color:#3E35BC"/>
			<stop  offset="0.5616" style="stop-color:#1B2090"/>
			<stop  offset="0.7734" style="stop-color:#07074E"/>
			<stop  offset="0.9458" style="stop-color:#333EDD"/>
		</linearGradient>
		<path class="st56" d="M507.9,501.1c-25.5,20.6-61.4,40.2-107.6,58.7c-46.2,18.5-85.4,29.1-117.4,31.9c-28.8,2.3-47.3-1.6-55.5-12
			c-8.1-10.2-4.3-23.7,11.7-40.7c17.1-18.3,45.6-36.8,85.3-55.5l4.4-2.1c7.7-4.1,13.2-7.7,16.7-10.8c3.9-3.5,4.3-6,1.3-7.6
			c-8.1,0.1-10.4-1.2-6.7-3.7c3.7-2.3,11.5-4.7,23.4-7.1c11-1.6,17.2-1.6,18.5,0.3c0.9,0.9,0,2.9-2.9,5.9l-2.2,3.1
			c31.2-11.3,58.6-19,82.2-23.2c5.3-0.9,10.4-1.7,15.3-2.3c7.5-0.9,14.5-1.4,21.1-1.5c26.7-0.2,41.4,6.1,44.3,19
			C541.8,466.4,531.2,482.2,507.9,501.1z M364.7,473.7c-63.4,25.8-107.9,63.8-99.3,84.9c8.6,21.1,67,17.3,130.4-8.4
			c63.4-25.8,107.9-63.8,99.3-84.9C486.5,444.1,428.1,447.9,364.7,473.7z"/>
	</g>
</g>
</svg>
