<svg id="Layer_1" data-name="Layer 1" xmlns="http://www.w3.org/2000/svg" viewBox="0 0 162.42 209.7"><defs><style>.cls-1{fill:#e6e7e8;}</style></defs><title>thumbprint</title><path class="cls-1" d="M91.57,140.89C87,136.74,82,133,78,128.28c-1.63-1.92-1-5.76-1.39-8.73,2.47,0.23,5.2-.14,7.35.82,4.53,2,8.67,4.87,13.11,7.12a23.85,23.85,0,0,0,22.11.25c2.42-14.76-8.88-28.9-19.62-34.64-1.07-.57-2.52-0.45-3.79-0.65C90.9,87,78,84.59,72.5,86.85l23.38,5.47c5.37,4.85,11.21,9.28,15.92,14.7,2.77,3.19,4.38,7.8,5.38,12,1.53,6.51-3.15,10.61-10.34,9.43a29.86,29.86,0,0,1-7.93-2.69c-5-2.4-9.84-5.1-14.74-7.68l0.54-1.25c5.21,2.33,10.5,4.47,15.6,7,5.28,2.65,13.18,3.54,13.71.81,0.8-4.11.44-9.35-1.54-13-9.05-16.48-30.46-27.39-51-18.92-1.86.77-3.27,2.6-4.88,3.94-5.3,3-9.55,6.84-10.68,13.21-0.41,1.33-.46,3.49-1.3,3.86-5.48,2.45-6.31,7.84-8.75,12.45l-0.38-5-6.58,11.28-0.62-.27L34.5,115C39.79,106,45.08,97.13,53.07,90l-8.89,6.13,6.36-8.31C42.39,92.24,38.37,100.2,34.12,108L44.31,96c-1.3,2.19-2.72,4.32-3.86,6.59-2,4.09-3.9,8.28-5.84,12.42L28,126.23,27.28,126l3.84-10.91-1.41-.65-5.84,11.61-1.1-.51c2.81-6.05,5.24-12.32,8.53-18.1s7.38-11,11.13-16.49l-1.11-.82-17,24.61-0.93-.45c1.37-2.52,2.69-5.07,4.11-7.57,1.52-2.68,3.13-5.32,4.69-8L30.95,98c-2.48,3.88-5.94,7.47-7.17,11.71-1.41,4.87-6.75,7.13-6.17,13.9,0.5,5.77-4.4,12-6.91,18l-1.41-.48,7-18.48-1-.44-4,7.46-0.73-.29,4.22-12-0.14.2c1.74-1.71,4.07-3.12,5.12-5.19,6.22-12.23,13.36-23.31,26-30.21C55.22,77,64.32,73,75.38,76.44c4.51,1.39,9.4,1.53,14.12,2.23l5.52,2,13.84,11.74c10.21,8.65,16.45,19.45,17.49,32.93,0.65,8.4-4.49,12.4-12.8,10.61-3.31-.71-6.81-0.56-10.22-0.8l-0.07,1.41,9.66,0.9-0.25,1.65L99.14,137l-0.76-2.25,1.5-1.2c-6.5-5.44-13.26-10.45-22.18-12.41a12.89,12.89,0,0,0,2.73,6.11,53.75,53.75,0,0,0,6.8,6.28,42.21,42.21,0,0,0,5.19,3.11l-0.15-.11L93,139.6Zm27-32.59c-2.83-8.92-10.31-13.91-16.7-19.83-12-9.55-25.48-11-39.9-7.2-1.9.5-4,.78-5.57,1.8-1.25.79-1.87,2.56-2.77,3.89,1.44,0.33,3.12,1.3,4.3.89,14-4.94,27.58-4.46,40.84,2.36,2.65,1.66,5.73,2.89,7.85,5.07,4.11,4.22,7.68,9,11.48,13.51,0.63,1.7,1.34,3.38,1.89,5.1,2.18,6.87,4.24,13.76-1.49,20L117,130.88l-9.82,2,0,1.06,11.26-.06c1.54-1.25,3.83-2.19,4.48-3.8C126.13,122,123.28,114.9,118.53,108.3ZM53.89,93.76c-7.63,4.6-10.52,11.74-14.12,18.34Z"/><path class="cls-1" d="M105.75,50.53L74.65,38.62l0.43-1.54L82.19,38c-4.26-2.85-10.43-4.48-23.73-3.7-8.15.48-16.25,3-24.22,5.15s-15.6,4.93-23.48,7.08C28.59,35.67,48.54,32.64,69.34,32c-3.64-5.76-26.93-6.09-36.69-.41l33-2.53,0.19,1.59c-20.14-.29-39.06,4.68-57.19,13L8,42l21.84-9.67-0.29-1.17-16.42,5.2c5.12-6.15,17.27-9.29,38.8-10.94,13.92-1.07,26.5,4.45,39.74,6.84C80.55,26.94,69,22.93,56.42,23.84c-12.14.88-24.24,2.36-37.37,3.67,8.16-5.72,17.29-4.46,25.27-7.44-9.56.19-18.92,1.51-27.84,5.43L15.71,24c2.94-1.51,5.73-3.77,8.85-4.39,7.17-1.41,14.49-2.13,21.77-2.94,12.92-1.44,25.4.94,37.75,4.51,2.81,0.81,5.86.81,8.81,1.19l-0.15-.1c3.39,2,6.69,4.2,10.18,6,7.27,3.79,14.64,7.4,22,11.08l-0.52,1.11c-12.12-5.14-24-11-36.42-15.21S62.77,17,49.18,19.86c27.05,0.25,50.63,10.49,73.13,23.92L121.83,45,97.39,33.33l-0.67,1.42,36.48,18.48-0.59,1.31c-17.23-7-32.94-18-51.65-21.3,18.24,8.79,38.14,14.2,54.2,27.4L91.48,39.91l-0.71,1.43,15,8.11Z"/><path class="cls-1" d="M95,80.68l-5.52-2C82.65,76.89,75.83,75,68.93,73.43a14.64,14.64,0,0,0-6.9.24c-14.7,4.18-27.48,11.39-36.58,24.12L25,97.5C29.89,87,38.82,80.92,48.82,76.08a50.35,50.35,0,0,0,4.87-2.36C45.47,74.8,38.8,79,32.57,84.27c-9.27,7.82-13.63,19-20,28.79-1.87,2.9-3.84,5.74-5.76,8.61l-1.12-.56L11,109.67a5.94,5.94,0,0,0,1.69-1.43A98,98,0,0,1,32.89,81.3c8.06-7.66,17.62-12.64,28.77-10.76,11.4,1.92,22.5,5.64,33.75,8.53a10.16,10.16,0,0,0,2.45,0l0.34-1.77c-10.69-2.65-21.31-5.71-32.1-7.85C53.39,67,41.73,70.59,32.41,79.2c-6.12,5.66-10.89,12.85-15.83,19.68-2.35,3.25-3.69,7.22-5.49,10.87l-6,5.29-0.76-.49C7.21,109.63,9.7,104.45,13,99.85c5.4-7.54,10.84-15.15,17.13-21.93,8.73-9.4,20.35-11.8,32.76-11.07a18.44,18.44,0,0,0,4.74.07C55.55,63.34,44.29,65.85,34,72.51c-4.37,2.82-8,6.79-12,10.23l0.09,0.08c2.28-7.34,8.37-11.18,14.37-14.66,11.83-6.85,24.49-5,37.1-2.43,2.65,0.54,5.38.7,8.07,1l0.25-1.81-21-2.72c2.45-5.46,6.53-5.16,10.92-3.72,8,2.61,15.9,5.28,23.85,7.93l-0.5,1.76-9.8-2.5-0.26.93a15.77,15.77,0,0,0,2.41,1.21c15.82,4.9,29.15,13.75,40.65,25.53a9.65,9.65,0,0,0,2,1.25L130,94.48l11.18,17.86-0.31.33-7.22-8.26-0.81.55,13.75,19.62-1.15.85-15.35-21.06c3.33,8.14,10.1,14.47,12.38,24.44l-5.06-6.64,0.16,0.14L126,103.81c-5.24-7-11.27-13.18-19.11-17.42l4.87,4.82c-1.53-.82-3.13-1.54-4.58-2.48C103.09,86.1,99.07,83.37,95,80.68Zm18.89,7.58c5.62,4,7.84,12.49,16.75,12.7-4.44-8.92-12-14.37-20-19.62l1.74,3.77Zm-6.23-7.78c-23.24-12.37-25.17-13-29.56-11.66Z"/><path class="cls-1" d="M47.16,118.25l-5,17.85c-2.25-4.61-6.15-10.64-.55-17.85l1,4.44c1.23-3,2.24-5.57,3.33-8.11,7.94-18.49,34.87-26.69,52.5-10.52,3.9,3.57,7.53,7.44,11.29,11.17l1.55,4.81c-5.22,1.51-9.17-1-13.22-3.83-3.46-2.38-7.26-4.26-10.9-6.36L87.39,110c-5-5.56-18-5.25-21.74-1-5.59,6.38-6.89,18-2.48,26l-0.12-.23c0.64,2.16.88,4.55,2,6.42,4.13,6.88,9.09,13.06,16,17.48,0.88,0.57,1.17,2.06,1.73,3.13l0.12-.1C73.2,156.92,66.2,149.48,61,140.12c2.29,9.18,8.59,15.31,16.43,20.85-5.29,0-15.83-10.75-19.05-18.76-5.14-12.78-5.43-25,4.48-36.76l0.48,2.95a1.81,1.81,0,0,0,.85-0.29c3-4.31,10.28-6.09,17.05-4.16,5.83,1.66,11.1,4.13,15.44,8.62a29.88,29.88,0,0,0,8.83,5.76c-7.36-5.83-13.31-13.46-23.28-15.73-7.15-1.63-13.53.22-20,2.06-1.51.43-3,2.23-3.76,3.77-2.35,4.73-4.35,9.63-6.49,14.46l0.14-.17a88.27,88.27,0,0,0-2,9.79c-0.25,2.61.31,5.29,0.07,8-3.24-6.17-2.72-11.13,2.36-26.94l-0.13.15c1.51-2.14,3-4.3,4.54-6.4,1.06-1.42,2-3.19,3.41-4.05,9.78-5.89,24.27-4.87,33.38,2.17,2.52,2,5,3.93,7.54,5.89C90.56,95.23,67,93.13,53.9,106.54Zm12.5,18.08-1.37-17.89C55.88,124,56.6,132.37,59.65,136.33Z"/><path class="cls-1" d="M100.56,60.8c5.3,3.28,10.78,6.29,15.84,9.9a112.52,112.52,0,0,1,15.54,13.46C115.31,68.8,95.26,60.26,74,54c26.43,9.09,49.87,22.91,68.34,44.42-4.78-4-9.7-7.89-14.29-12.11-5-4.58-9.2-10.13-16.46-11.36l-2.83-1.66c-4.64-2.71-9.23-5.52-14-8.08-3.06-1.66-6.35-2.86-9.48-4.39-11.3-5.54-23-5.18-35-2.79-8.6,1.72-16.77,4.46-23.75,9.63-4.73,3.5-8.8,8-12.69,12.49C9.88,84.77,6.39,89.94,2.57,95c0.89-8.81,15.24-23.46,26-31,11.77-8.23,25-11.07,39.8-9.56-5.56-4.27-18.29-2.13-28.89,2.24-8.84,3.64-16.74,9.56-23.78,13.72,5-12.24,32.08-22,56.22-18.59l-3.62-3.26,0,0,21,8c3.83,1.46,7.66,2.89,11.49,4.33Z"/><path class="cls-1" d="M103.81,60.24c0-.7.18-1.83-0.17-2C97,54.13,90.66,49,83.43,46.44,68.1,41.1,52,37.87,36.23,44.28c-7.55,3.06-14.28,8.17-21.34,12.43-1.74,1.05-3.3,2.43-4.94,3.65l-1-1.3,18-13.63-0.69-1.1-19.11,12L6.3,54.84c7.6-4.42,13.38-11.51,23.51-12.21,7.13-.49,14.07-3.63,21.46-5.68l-1,1.94C81.87,39.41,109,52,134.5,69.35l-0.57,1.24c-6.25-3.57-12.46-7.22-18.77-10.68a128.54,128.54,0,0,0-20.1-9.33l36.51,20.74-1,1.72L108.73,60.19l-0.84,1.3,25.82,15.66-0.5.86-5.59-2.64,2.56,3.47,0.24-.55-27-17.58Z"/><path class="cls-1" d="M111.32,120l-1.55-4.81c-3-7.9-9.54-12.46-16.21-16.66-16-10-36.28-4-45.43,9.45A11.55,11.55,0,0,1,45.93,110c1.14-6.37,5.39-10.22,10.68-13.21,9.63-5,19.79-7.18,30.3-3.72a44,44,0,0,1,25.5,21.62c1.34,2.5,1,5.91,1.39,8.86-8,2.42-13.21-1.33-18.7-5-4.73-3.16-9.74-6.37-15.11-8-10.56-3.22-19.25,5.84-16.26,16.62,5,17.81,15.91,29.64,34.56,33.44,4.39,0.89,5.82,2.06,7.28,6.5-4.12-1-8-1-10.74-2.78C85.22,158.21,75,152.8,68.19,143.12c-1.88-2.69-3.44-5.62-5.14-8.43l0.12,0.23C62.86,130,62,125,62.36,120.11c0.67-9.52,8.69-14.94,17.56-12.4,2.5,0.72,5,1.49,7.47,2.24l-0.19-.12c4.33,3.24,8.51,6.71,13,9.63a22.31,22.31,0,0,0,7.85,2.74C109,122.39,110.24,120.82,111.32,120Z"/><path class="cls-1" d="M92.88,22.33c-10-2.7-19.93-6.69-30.14-7.73-10.65-1.09-21.62.37-32.39,1.34-3.94.36-7.72,2.51-12.06,4,3.19-4.61,15.8-8.45,24.5-8.23,8.33,0.21,16.66-2,25,1l0.27-2-19.47-5,0.7-2.28,53,13.5-0.56,2.45-30.33-8.2-0.52,1.69c15,4.33,31,6.3,44.31,17.65l-22.5-8.23Z"/><path class="cls-1" d="M91.57,140.89L93,139.6a17.09,17.09,0,0,1,3.12.86c5.73,2.79,11.46,5.47,18.23,3.71a7.09,7.09,0,0,0-3.19-1.75c-4.23-1.11-8.52-2-12.72-3.25a54.18,54.18,0,0,1-6.21-2.64l0.15,0.11-5.83-7.21,1.28-1.26c4.43,0.54,7.66,3.22,10.51,6.59L99.14,137a20.48,20.48,0,0,0,2.71,2c7.49,3.87,14.05-.27,20.77-2.59,4.72-1.63,6.34-5.28,5.88-10.13C127.32,114,122,103.7,113.89,94.65a25.81,25.81,0,0,1-2.31-3.59c5.44,4,9.93,8.69,12.14,15.23q3.16,8.31,6.33,16.62c0.29,0.75.54,2.09,0.94,2.15,5.25,0.69,3,4.78,3.85,7.41l-1.58.58-1.74-5.8-2.07,5c3.23,3.93,3,5.54-1.81,7.84-3.61,1.72-7.43,3-12.23,4.91,9.83-.19,14.46-2.83,19.89-10.07l-1.71,6.31,0.14-.18c-7.91,3.91-16.05,7.38-25.06,5.42C102.85,145.19,97.26,142.79,91.57,140.89ZM116.79,141l0.54,1.2,12.61-5-0.69-1.68Z"/><path class="cls-1" d="M68.31,48.56c-4.74.25-9.49,0.46-14.23,0.74C37.26,50.3,23.65,58,12.52,70.14,8.84,74.15,6.11,79,3,83.52L0.5,81.2C9.95,67.28,23.05,57.41,37.73,49.14c-7.31,1.13-13.27,5.18-18.82,9.45S8.52,68.3,2.92,72.65C13.4,60.51,24.6,49,40.73,44.73c16.5-4.33,32.3.68,48,5.3-15.87-1.46-31.41-8.41-48-2.79,9.4,0.48,18.45.94,27.52,1.38Z"/><path class="cls-1" d="M133.73,141l-0.14.18,5.1-8.18c0.76,5-3.12,12.12-9,13.78a120.63,120.63,0,0,1-19.42,3.46c-17,1.92-27.22-8.54-36.15-20.74-1.63-2.22-1.76-5.54-3.15-8.44,0.21,2.77-.29,5.85.75,8.26,7.14,16.51,28.91,27.68,47,24.46a4.94,4.94,0,0,1,1.65.3l-0.09,1.78c-6.24-.28-12.64.25-18.68-1-13.53-2.8-23.59-11-30.86-22.58-3.73-6-3.35-16.4,5.4-17.33a8.62,8.62,0,0,1,6,1.9,2.27,2.27,0,0,1-.87.42c-6.2-.17-8.73,3.49-6.48,9.46a7.44,7.44,0,0,0,1.4,2.63c7.55,7.64,14.42,16,25.55,19.11C111.58,151.24,128.66,147.66,133.73,141Z"/><path class="cls-1" d="M39.09,172.87c1.1,6,4.67,9.93,10.12,12.68l-4.38-.13-0.29,1.31,19.86,5.74L64.87,191l-13.53-4.38,0.18-1.34c18.57,5.35,37.24,8.42,56.81,3.43-0.8-.53-1.23-0.87-1.71-1.11s-1.09-.45-1.82-0.75L125,184.17c-4.9,2.08-9.57,4.88-14.61,6a122,122,0,0,1-37.2,2.34c-0.74-.06-4.53-2.13-4.64,1.92a10.6,10.6,0,0,1-4.59.19c-8.33-2.6-16.56-5.49-24.87-8.14a17.92,17.92,0,0,0-4.38-.34l1.15-11.71,3.84,7.06,0.86-.38a27.29,27.29,0,0,1-1.89-4.71c-0.22-1.05.35-2.28,0.57-3.42Z"/><path class="cls-1" d="M90.35,117.26c-3.74-1.18-7.41-2.94-11.25-3.44-8.77-1.13-14,5.36-11.66,14,2.29,8.33,7.75,14.62,14.08,20,15.13,12.82,31.67,13.7,49.11,4.93,3.19-1.6,6.6-2.76,9.91-4.12l0.65,1.73c-7.94,2.82-15.79,5.91-23.83,8.39-14,4.31-26.15-1.07-37-9-7.18-5.25-12.86-12.4-14.94-21.66-1.26-5.63-.25-11,3.74-14.77s9.34-2.47,14.09-.56c2.66,1.07,5.17,2.52,7.74,3.79Z"/><path class="cls-1" d="M118.64,168.13c11-1.76,22.11-3.26,32.46-8.21-11.1,5.29-21.37,12.5-34.4,12.94l14.72-4.39-0.21-.81-16.59,2.61c0.48-5.5,4.36-6.8,8.36-7.94,9.29-2.64,18.61-5.22,26.24-11.67-6,7-14.46,9.73-22.79,12.64,13.69-.61,23.57-9.53,35-15.24a59.53,59.53,0,0,1-21.15,13.44c-7,2.48-14.56,3.58-21.86,5.29Z"/><path class="cls-1" d="M13,92.45c-2.58,2.57-5.19,5.13-7.74,7.73a6.52,6.52,0,0,1-2.63,2.09C7.22,94.87,9,86.08,15.74,79.69c12.73-12.14,26.45-21.76,45.4-20.51-2.14.74-4.23,1.91-6.41,2.14C42,62.63,30.82,67.38,22.35,77c-4,4.5-6.39,10.38-9.51,15.64Z"/><path class="cls-1" d="M154.59,180.85c-22.77,4.8-43.9,16.79-68,15.8l-0.32-1.46c2.39-.38,4.84-1.32,7.15-1.05,9.81,1.12,18.6-2.39,27.54-5.42s18.13-6,27.26-8.86c1.95-.6,4.14-0.38,6.23-0.54Z"/><path class="cls-1" d="M64.13,201.89l-7.5.21-0.14-1.58,28.2-2.16c-4.92,3.78-12.82,1.57-18.25,5.6l0.52,1.5,31.59-8.79,0.52,1.88-36,9.87,1.17-3.15-5.93-.88Z"/><path class="cls-1" d="M65.73,183.7c-4-2.53-8.32-4.7-11.95-7.68a33.68,33.68,0,0,1-8-10.26,40.8,40.8,0,0,0,23.43,16c-6.92-4.23-14.49-7.68-19.13-16.12l23.83,17.29,0.84-.55L71,176.56l7.19,4.11c-2.92,4.84,3.54,3.07,3.35,5.78l-16-2.87Z"/><path class="cls-1" d="M108.77,73.24l2.83,1.66c9,7.64,18.17,15.08,26.92,23,4.09,3.7,7.36,8.31,11,12.51l-0.91.85c-2.72-2.91-5.26-6-8.22-8.67-3.25-2.92-6.88-5.43-10.35-8.12l0.16,0.13c-6.25-8.39-13.75-15.3-23.17-20a32.18,32.18,0,0,1-8.94-6.06Z"/><path class="cls-1" d="M47.16,118.25l6.74-11.71a9.76,9.76,0,0,1,.31,3.21,21.79,21.79,0,0,1-1.78,3.93l0.13-.15c-4.84,5.38-5.63,12.11-5.79,18.83-0.22,9.28,1.11,18.37,5.13,26.82C44.93,146.2,43.06,132.59,47.16,118.25Z"/><path class="cls-1" d="M27.48,179.21l2.64-7.56-5.53,5.7,1.64-11.62,3.42,3.14c-0.14-4.72-.3-9.11-0.37-13.5a4.67,4.67,0,0,1,.74-1.65C32.57,171.32,32.28,175.36,27.48,179.21Z"/><path class="cls-1" d="M52.16,151.7c4,4.78,7.29,9.51,11.35,13.46s8.75,7,13,10.29C68.67,175.4,54.3,161.74,52.16,151.7Z"/><path class="cls-1" d="M14.74,117.36l-8.62,14L5,130.82c2.47-4.65,4.73-9.43,7.46-13.92,4-6.57,8.35-12.94,12.55-19.4l0.41,0.29L14.6,117.56Z"/><path class="cls-1" d="M54.79,147.77A62.69,62.69,0,0,0,79.07,172C73.06,173.9,57.42,158.5,54.79,147.77Z"/><path class="cls-1" d="M45.61,194l34.67,1.35,0.16,0.92c-5.86.45-11.76,1.5-17.58,1.18s-11.42-2-17.12-3.14Z"/><path class="cls-1" d="M61.5,152.06c3.9,3.55,7.54,7.47,11.78,10.55C78.4,166.35,84,169.38,90,173.06c-4.11-1.18-8.49-1.37-11.44-3.52-5.8-4.23-10.84-9.5-16.07-14.47-0.68-.64-0.6-2.08-0.88-3.15Z"/><path class="cls-1" d="M147.58,146.65c-4.52,8.22-29.52,17.91-40,16.45C121.15,159.35,135.35,157.3,147.58,146.65Z"/><path class="cls-1" d="M12.84,92.59l9.25-9.77L22,82.74a58.79,58.79,0,0,1-3.43,6.46c-4.86,7-9.89,13.88-14.85,20.8l-1.14-.65L13,92.45Z"/><path class="cls-1" d="M61.91,184c-8.74.07-13.31-6.3-17.93-12.15-2-2.51-2.69-6-3.83-8.73,4.35,5.12,8.48,10.48,13.17,15.31,2.32,2.39,5.65,3.79,8.52,5.64Z"/><path class="cls-1" d="M162.42,165.55l-29.64,12.33-0.55-1.36,29.42-13Z"/><path class="cls-1" d="M105.75,50.53l0-1.08c10.87,3.23,20,9.63,29.43,15.42L134.54,66c-4-2.15-7.92-4.3-11.89-6.44Q114.21,55.05,105.75,50.53Z"/><path class="cls-1" d="M78.38,5.6C75.84,7.85,60.74,4.85,53.7,0Z"/><path class="cls-1" d="M131.69,172.48l29.46-13.7,0.7,1.54L132.33,174Z"/><path class="cls-1" d="M61.63,151.92c-1.27-1.14-2.85-2.09-3.77-3.47-5.22-7.81-7.53-16.33-5.75-25.73l-0.15.17,2,0.33c-2.25,10.85,2.7,19.83,7.53,28.84Z"/><path class="cls-1" d="M108.92,183l13.58-3v-1.41l-4.36-1.26,9.58-4.19,0.46,0.54-4,3.69,0.51,0.78,5.29-1.28,0.42,1.49-21,6.48Z"/><path class="cls-1" d="M150,176.73l-22.54,7-0.59-1.78,22.42-7.34Z"/><path class="cls-1" d="M79.51,173.86l30.88,2.9C100.6,179,90.39,178,79.51,173.86Z"/><path class="cls-1" d="M141.69,193.57l-24.31,7.16-0.6-1.89c4-1.1,8-2.13,12-3.31s8.09-2.55,12.13-3.83Z"/><path class="cls-1" d="M95.47,203.33l-24,6.36L71,208.3l24-7.12Z"/><path class="cls-1" d="M137.46,122.17l1,7.24-0.71.28-4.08-9.6-0.88.3,0.21,2.8-0.66.15L127,108.59l10.6,13.72Z"/><path class="cls-1" d="M108.3,172.67c-10.24,4.52-17.47-2.66-25.52-6.83C91.22,168.22,98.45,175.16,108.3,172.67Z"/><path class="cls-1" d="M123.72,106.28C121.5,99.74,117,95,111.58,91.05l0.17,0.16-4.87-4.82c7.84,4.24,13.87,10.4,19.11,17.42Z"/><path class="cls-1" d="M23.81,117.47l-10.67,28L11.88,145l10.38-28.06Z"/><path class="cls-1" d="M150.06,186.27l-23.72,7.16-0.51-1.76,23.83-6.8Z"/><path class="cls-1" d="M84.29,179.19l26.89,0.5C106.77,182.55,90.88,182.5,84.29,179.19Z"/><path class="cls-1" d="M132.63,147.7l7.27-7.88c4.15,2.36,4.3,4.06.25,6.27-2.21,1.21-4.79,1.77-7.2,2.62Z"/><path class="cls-1" d="M82.78,161.71c1.89,0.41,4,.39,5.62,1.31,5.82,3.36,11.76,6.05,18.7,5.79,1,0,2,.64,3.13,1-10.55,1.57-19.2-2.46-27.31-8.26Z"/><path class="cls-1" d="M103.41,60.72l-2.86.08,0.16,0.13c-5-2.54-10-5.1-15.05-7.61A20,20,0,0,1,81,50.61c7.85,2.64,16.12,4.23,22.83,9.62Z"/><path class="cls-1" d="M51.16,10.83C45.79,8.26,39.72,12.37,34.44,9l0.21-2,16.72,1.8Z"/><path class="cls-1" d="M72.43,38.44L54.24,37.16C58.83,34.3,69.38,34.84,72.43,38.44Z"/><path class="cls-1" d="M80.2,7L98,11.53l-0.5,1.81L79.74,8.68Z"/><path class="cls-1" d="M121,195.24l-16.26,5-0.47-1.46,16.16-5.41Z"/><path class="cls-1" d="M39.22,173L35,154.43l0.68-.15,5.61,19.34-2.23-.75Z"/><path class="cls-1" d="M0,89.16L8.17,77.32l1.49,1-8,11.93Z"/><path class="cls-1" d="M113.16,152.35l17.25-2.61C125.82,155.27,119.07,151.93,113.16,152.35Z"/><path class="cls-1" d="M81.14,2.75L92.26,5.87,91.69,7.93l-11.14-3Z"/><path class="cls-1" d="M134.44,98.38l11.55,13-1.18,1-11.51-13Z"/><path class="cls-1" d="M61.84,184.1l3.89-.4-0.18-.13,7.55,3.49-0.5,1.24c-3.86-.53-8.27.57-10.7-4.28Z"/><path class="cls-1" d="M143.23,114.67l10.55,10.56-1.06,1.05L142,115.65Z"/><path class="cls-1" d="M115.86,201.67l-10.43,1.75-0.33-1.82,10.27-2.11Z"/><path class="cls-1" d="M24.08,153L21.36,167.8l-1.67-.31,3-14.8Z"/><path class="cls-1" d="M98.72,90.21c-13.27-6.82-26.86-7.3-40.84-2.36-1.18.42-2.85-.56-4.3-0.89,0.9-1.33,1.53-3.1,2.77-3.89,1.6-1,3.68-1.29,5.57-1.8,14.42-3.82,27.89-2.35,39.9,7.2ZM96,87.3C85.88,79.35,61.1,79,55,87.12,69.18,82.37,82.68,80.5,96,87.3Z"/><path class="cls-1" d="M118.46,133.95c5.72-6.3,3.66-13.18,1.48-20.06-0.55-1.73-1.26-3.4-1.89-5.1l0.48-.49c4.75,6.6,7.6,13.67,4.33,21.74-0.65,1.61-2.95,2.55-4.48,3.8Z"/><path class="cls-1" d="M98.72,90.21l3.11-1.74c6.39,5.92,13.87,10.91,16.7,19.83l-0.48.49c-3.79-4.53-7.36-9.29-11.48-13.51C104.45,93.1,101.37,91.87,98.72,90.21Z"/><path class="cls-1" d="M92.26,136.54a54.19,54.19,0,0,0,6.21,2.64c4.2,1.22,8.48,2.14,12.72,3.25a7.09,7.09,0,0,1,3.19,1.75c-6.77,1.76-12.5-.92-18.23-3.71A17.09,17.09,0,0,0,93,139.6Z"/><path class="cls-1" d="M118.38,133.84l-11.26.06,0-1.06,9.82-2,1.47,3.06Z"/><path class="cls-1" d="M112.42,85.11l-1.74-3.77c7.93,5.25,15.54,10.71,20,19.62-8.91-.21-11.13-8.66-16.75-12.7L127,98.77a42.7,42.7,0,0,0-7.67-9.43C117.35,87.56,114.74,86.5,112.42,85.11Z"/><path class="cls-1" d="M59.65,136.33c-3.05-4-3.77-12.34-1.37-17.89Z"/><path class="cls-1" d="M116.79,141l12.46-5.49,0.69,1.68-12.61,5Z"/></svg>